<?xml version="1.0" encoding="utf-8"?>
<!-- Generator: Adobe Illustrator 16.0.0, SVG Export Plug-In . SVG Version: 6.00 Build 0)  -->
<!DOCTYPE svg PUBLIC "-//W3C//DTD SVG 1.1//EN" "http://www.w3.org/Graphics/SVG/1.1/DTD/svg11.dtd">
<svg version="1.1" id="Layer_1" xmlns="http://www.w3.org/2000/svg" xmlns:xlink="http://www.w3.org/1999/xlink" x="0px" y="0px"
	 width="332.666px" height="347.289px" viewBox="0 0 332.666 347.289" enable-background="new 0 0 332.666 347.289"
	 xml:space="preserve">
<path fill="#210D34" d="M330.294,14.48c-1.585-5.058-4.271-8.54-8.071-10.441c-3.791-1.898-7.116-2.969-9.96-3.442
	C309.413,0.119,304.826,0,298.499,0H34.643c-6.33,0-11,0.119-14,0.598c-3.01,0.473-6.409,1.601-10.202,3.5
	c-3.8,1.901-6.489,5.274-8.067,10.173C0.783,19.181,0,25.728,0,33.95c0,8.233,0.783,14.87,2.374,19.925
	c1.578,5.067,4.268,8.541,8.067,10.437c3.793,1.898,7.192,3.295,10.202,3.767c3,0.479,7.511,0.921,13.525,0.921h91.117h16.143
	c7.68,27-7.19,57.647-7.19,80.12c0,5.686,6.095,10.559,17.095,12.343v24.755c-36.783,2.666-47.51,6.144-47.907,6.276
	c0.804,85.507,44.499,154.795,57.231,154.795c12.769,0,56.7-69.08,57.281-154.889c-1.987-0.592-13.78-3.731-47.605-6.183v-24.755
	c8-1.784,16.939-6.657,16.939-12.343c0-22.473-14.986-53.12-7.337-80.12h27.446h90.643c6.324,0,10.989-0.444,13.999-0.923
	c3.005-0.472,6.408-1.764,10.199-3.663c3.8-1.896,6.486-5.347,8.071-10.258c1.58-4.898,2.372-11.486,2.372-19.718
	C332.666,26.215,331.874,19.543,330.294,14.48z"/>
</svg>
