<?xml version="1.0" encoding="utf-8"?>
<!-- Generator: Adobe Illustrator 16.0.0, SVG Export Plug-In . SVG Version: 6.00 Build 0)  -->
<!DOCTYPE svg PUBLIC "-//W3C//DTD SVG 1.1//EN" "http://www.w3.org/Graphics/SVG/1.1/DTD/svg11.dtd">
<svg version="1.1" id="Layer_1" xmlns="http://www.w3.org/2000/svg" xmlns:xlink="http://www.w3.org/1999/xlink" x="0px" y="0px"
	 width="751.657px" height="133.168px" viewBox="0 0 751.657 133.168" enable-background="new 0 0 751.657 133.168"
	 xml:space="preserve">
<g>
	<path fill="#210D34" d="M219.244,81.419c8.831-8.592,13.246-19.543,13.246-32.85c0-7.653-1.53-14.598-4.592-20.841
		c-3.062-6.24-6.948-11.185-11.657-14.835c-4.709-3.649-9.686-6.527-14.924-8.471c-5.24-1.942-10.332-2.995-15.277-2.995h-38.147
		c-3.771,0-6.772,0.434-9.009,1.142c-2.238,0.706-3.828,1.983-4.769,3.748c-0.944,1.767-1.586,3.35-1.764,4.701
		c-0.176,1.355-0.351,3.407-0.351,6.113v98.022c0,2.238,0.113,3.919,0.175,5.031c0.058,1.124,0.396,2.472,0.926,4.065
		c0.531,1.588,1.347,2.8,2.406,3.618c1.061,0.825,2.599,1.533,4.604,2.123c2,0.589,4.537,0.879,7.599,0.879
		c3.767,0,6.772-0.35,9.009-1.06c2.236-0.703,3.828-1.942,4.771-3.704c0.939-1.769,1.284-3.33,1.46-4.683
		c0.178-1.353,0.05-3.383,0.05-6.093V95.427h22.688l5.475-0.381c4.945,11.773,8.713,20.593,11.304,26.479
		c1.06,2.472,1.913,4.292,2.561,5.467c0.646,1.179,1.705,2.327,3.18,3.439c1.471,1.119,3.207,1.68,5.209,1.68
		c2.589,0,5.77-0.825,9.538-2.474c7.3-3.062,10.951-6.829,10.951-11.303c0-1.883-0.883-4.946-2.649-9.185
		C225.837,96.905,221.832,87.663,219.244,81.419z M196.283,60.384c-3.415,2.591-6.829,4.043-10.243,4.043H163v-32h22.688
		c3.648,0,7.181,1.535,10.596,4.186c3.415,2.649,5.122,6.691,5.122,11.753C201.405,53.664,199.698,57.795,196.283,60.384z"/>
	<path fill="#210D34" d="M302.608,0c-8.124,0-16.013,1.651-23.666,4.946c-7.655,3.297-14.425,7.831-20.312,13.6
		c-5.889,5.769-10.597,12.922-14.129,21.458c-3.532,8.539-5.299,17.692-5.299,27.465c0,17.9,6.271,33.321,18.809,46.272
		c12.54,12.955,27.934,19.428,46.188,19.428c17.542,0,32.438-6.561,44.683-19.693c12.244-13.127,18.369-28.7,18.369-46.714
		c0-19.309-6.419-35.264-19.252-47.863C335.163,6.301,320.034,0,302.608,0z M325.921,92.371c-6.71,6.356-14.304,9.538-22.782,9.538
		c-8.243,0-15.749-3.27-22.52-9.804c-6.771-6.535-10.154-14.982-10.154-25.344c0-10.599,3.355-19.163,10.067-25.698
		c6.712-6.536,14.305-9.803,22.782-9.803c8.241,0,15.746,3.241,22.519,9.714c6.769,6.478,10.156,15.012,10.156,25.609
		C335.989,77.417,332.634,86.012,325.921,92.371z"/>
	<path fill="#210D34" d="M525.239,2.296c-3.18-1.176-6.005-1.767-8.479-1.767c-2.236,0-4.148,0.618-5.739,1.855
		c-1.588,1.236-2.68,2.502-3.267,3.797c-0.59,1.297-1.357,3.297-2.294,6.004l-19.428,59.342L466.777,13.07l-1.059-2.827
		c-0.708-1.881-2.358-3.796-4.943-5.74c-2.593-1.942-5.83-2.914-9.714-2.914c-2.121,0-4.123,0.413-6.006,1.236
		c-1.886,0.825-3.329,1.74-4.328,2.737c-1.001,1.001-1.917,2.181-2.737,3.533c-0.826,1.354-1.325,2.269-1.501,2.737
		c-0.176,0.472-0.326,0.883-0.441,1.237l-19.25,58.106L397.37,12.186c-1.18-3.886-2.506-6.768-3.973-8.654
		c-1.475-1.881-3.799-2.825-6.979-2.825c-2.355,0-5.241,0.59-8.654,1.765c-7.89,2.711-11.832,6.42-11.832,11.128
		c0,1.884,0.645,4.768,1.942,8.654l34.085,98.024l1.237,2.647c0.821,1.769,2.441,3.53,4.857,5.3
		c2.412,1.767,5.266,2.646,8.565,2.646c2.233,0,4.264-0.41,6.093-1.233c1.822-0.823,3.267-1.769,4.328-2.827
		c1.06-1.06,2-2.236,2.823-3.531c0.823-1.293,1.327-2.21,1.503-2.737c0.176-0.53,0.324-0.974,0.439-1.327l19.606-57.928
		l19.605,57.928l1.059,3.008c0.823,1.882,2.5,3.792,5.034,5.734c2.529,1.942,5.563,2.914,9.094,2.914
		c3.413,0,6.389-0.972,8.921-2.914c2.53-1.942,4.091-3.499,4.681-4.678c0.587-1.177,0.996-2.176,1.234-3.001l33.912-98.024
		c1.412-4.239,2.12-7.122,2.12-8.654C537.073,8.892,533.124,5.122,525.239,2.296z"/>
	<path fill="#210D34" d="M632.268,32.427c2.233,0,3.912,0.184,5.033,0.124c1.119-0.06,2.473-0.249,4.062-0.779
		c1.589-0.529,2.794-1.27,3.621-2.33c0.821-1.06,1.529-2.562,2.118-4.566c0.59-2,0.884-4.518,0.884-7.583
		c0-3.767-0.352-6.762-1.06-9.001c-0.705-2.234-1.942-3.82-3.711-4.765c-1.765-0.941-3.325-1.58-4.678-1.756
		c-1.357-0.176-3.388-0.345-6.095-0.345h-69.586c-6.243,0-10.374,1.171-12.61,3.349C548.009,6.956,547,11.127,547,17.131v98.2
		c0,2.24-0.082,3.915-0.018,5.034c0.056,1.119,0.298,2.472,0.827,4.061c0.532,1.588,1.298,2.8,2.356,3.623
		c1.062,0.825,2.577,1.717,4.58,2.307c2,0.589,4.519,1.071,7.58,1.071h69.941c2.233,0,3.912-0.217,5.033-0.276
		c1.119-0.06,2.473-0.448,4.062-0.978c1.589-0.529,2.794-1.372,3.621-2.432c0.821-1.059,1.529-2.61,2.118-4.619
		c0.59-1.996,0.884-4.54,0.884-7.602c0-3.769-0.352-6.778-1.06-9.017c-0.705-2.234-1.942-3.829-3.711-4.771
		c-1.765-0.941-3.325-1.686-4.678-1.859c-1.357-0.178-3.388-0.447-6.095-0.447H578v-17h34.664c2.235,0,3.912-0.266,5.031-0.328
		c1.119-0.057,2.502-0.471,4.15-1c1.648-0.531,2.884-1.385,3.711-2.444c0.821-1.061,1.529-2.619,2.118-4.624
		c0.59-1.998,0.884-4.545,0.884-7.608c0-3.767-0.352-6.777-1.06-9.015c-0.705-2.236-1.942-3.829-3.711-4.773
		c-1.765-0.94-3.325-1.633-4.68-1.809c-1.353-0.177-3.386-0.398-6.093-0.398H578v-18H632.268z"/>
	<path fill="#210D34" d="M750.773,110.383c-0.589-1.883-1.588-3.175-3.001-3.885c-1.413-0.703-2.68-1.388-3.799-1.563
		c-1.117-0.178-2.855-0.508-5.208-0.508H691v-87.12c0-2.235-0.168-3.912-0.224-5.032c-0.064-1.117-0.425-2.472-0.954-4.062
		c-0.529-1.589-1.358-2.795-2.419-3.621c-1.06-0.822-2.606-1.53-4.608-2.121c-2.003-0.587-4.542-0.882-7.603-0.882
		c-3.77,0-6.777,0.353-9.014,1.061c-2.236,0.706-3.829,1.942-4.77,3.708c-0.946,1.767-1.732,3.33-1.91,4.681
		c-0.176,1.355-0.499,3.386-0.499,6.093v98.2c0,2.24,0.26,3.915,0.322,5.034c0.057,1.119,0.469,2.472,0.996,4.061
		c0.533,1.588,1.385,2.8,2.443,3.623c1.062,0.825,2.618,1.717,4.621,2.307c2,0.589,4.562,1.071,7.622,1.071h63.583
		c2.234,0,3.943-0.276,5.122-0.456c1.175-0.174,2.5-0.737,3.975-1.507c1.471-0.764,2.5-2.139,3.089-4.021
		c0.59-1.883,0.884-4.378,0.884-7.439C751.657,114.823,751.363,112.27,750.773,110.383z"/>
	<path fill="#210D34" d="M118.028,2.907c-1.389-0.695-2.606-1.087-3.648-1.26c-1.044-0.176-2.724-0.219-5.042-0.219H12.689
		c-2.318,0-4.029,0.043-5.128,0.219C6.459,1.819,5.214,2.233,3.825,2.928C2.433,3.625,1.447,4.86,0.869,6.654
		C0.287,8.453,0,10.851,0,13.863c0,3.016,0.287,5.447,0.869,7.299c0.578,1.855,1.563,3.128,2.956,3.823
		c1.389,0.695,2.634,1.07,3.737,1.243c1.099,0.176,2.751,0.2,4.954,0.2h33.376h5.913c2.813,10-2.85,21.253-2.85,29.485
		c0,2.082,3.045,4.004,6.045,4.658v9.068c-13,0.976-17.187,2.25-17.332,2.299c0.294,31.32,16.408,56.7,21.072,56.7
		c4.677,0,20.626-25.304,20.839-56.735C78.852,71.686,75,70.536,62,69.638V60.57c3-0.653,6.4-2.576,6.4-4.658
		c0-8.232-5.293-19.485-2.491-29.485h10.054h33.202c2.317,0,4.025-0.025,5.128-0.201c1.101-0.173,2.347-0.577,3.736-1.273
		c1.392-0.694,2.376-1.924,2.957-3.723c0.579-1.794,0.869-4.19,0.869-7.206c0-3.012-0.29-5.439-0.869-7.293
		C120.404,4.878,119.42,3.603,118.028,2.907z"/>
</g>
</svg>
